<svg xmlns="http://www.w3.org/2000/svg" viewBox="0 0 128 128" role="img" aria-label="VS Code Check icon">
  <defs>
    <linearGradient id="background" x1="12" y1="12" x2="116" y2="116" gradientUnits="userSpaceOnUse">
      <stop offset="0" stop-color="#070d1b"/>
      <stop offset="1" stop-color="#084e61"/>
    </linearGradient>
    <filter id="softShadow" x="-20%" y="-20%" width="140%" height="150%">
      <feDropShadow dx="1.3" dy="1.8" stdDeviation="0" flood-color="#000000" flood-opacity="0.4"/>
    </filter>
    <filter id="redShadow" x="-20%" y="-40%" width="140%" height="180%">
      <feDropShadow dx="0.8" dy="1.6" stdDeviation="0" flood-color="#4b000a" flood-opacity="0.57"/>
    </filter>
  </defs>

  <rect width="128" height="128" rx="24" fill="url(#background)"/>
  <rect x="0.75" y="0.75" width="126.5" height="126.5" rx="23.25" fill="none" stroke="#6ee6ff" stroke-opacity="0.38" stroke-width="1.5"/>

  <g fill="none" stroke="#e2f4fa" stroke-width="6" stroke-linecap="square" stroke-linejoin="miter" filter="url(#softShadow)">
    <path d="M36 18H13v92h23"/>
    <path d="M92 18h23v92H92"/>
  </g>

  <path
    d="M43 94l6-6 6 6 6-6 6 6 6-6 6 6 6-6"
    fill="none"
    stroke="#ff4352"
    stroke-width="5"
    stroke-linecap="round"
    stroke-linejoin="miter"
    filter="url(#redShadow)"
  />
  <path
    d="M43 92.9l6-6 6 6 6-6 6 6 6-6 6 6 6-6"
    fill="none"
    stroke="#ff9ea4"
    stroke-opacity="0.82"
    stroke-width="1.25"
    stroke-linecap="round"
    stroke-linejoin="miter"
  />
</svg>
